<svg width="20" height="20" viewBox="0 0 20 20" fill="none" xmlns="http://www.w3.org/2000/svg">
<path d="M9.99609 7.75C10.1579 7.75 10.2891 7.61883 10.2891 7.45703C10.2891 7.29523 10.1579 7.16406 9.99609 7.16406C9.83429 7.16406 9.70312 7.29523 9.70312 7.45703C9.70312 7.61883 9.83429 7.75 9.99609 7.75Z" fill="black"/>
<path d="M10.0039 19.3359H10C9.83984 19.3359 9.70703 19.2031 9.70703 19.043C9.70703 18.8828 9.83984 18.75 10 18.75H10.0039C10.1641 18.75 10.2969 18.8828 10.2969 19.043C10.2969 19.2031 10.1641 19.3359 10.0039 19.3359ZM8.82422 19.2617C8.8125 19.2617 8.79688 19.2617 8.78516 19.2578H8.78125C8.62109 19.2344 8.50781 19.0898 8.53125 18.9297C8.55469 18.7695 8.69922 18.6562 8.85938 18.6797H8.86328C9.02344 18.7031 9.13672 18.8477 9.11328 19.0117C9.09375 19.1523 8.97266 19.2578 8.82422 19.2617ZM11.1797 19.2617C11.0195 19.2617 10.8867 19.1289 10.8867 18.9688C10.8867 18.8242 10.9961 18.6992 11.1406 18.6797H11.1445C11.3047 18.6562 11.4531 18.7695 11.4727 18.9297C11.4922 19.0898 11.3828 19.2383 11.2227 19.2578H11.2188C11.207 19.2578 11.1953 19.2578 11.1797 19.2617ZM7.66406 19.0312C7.63672 19.0312 7.61328 19.0273 7.58594 19.0195L7.66406 18.7383L7.58594 19.0195C7.42969 18.9844 7.33203 18.8242 7.36719 18.668C7.40234 18.5117 7.5625 18.4141 7.71875 18.4492C7.72266 18.4492 7.72656 18.4531 7.73047 18.4531L7.73828 18.457C7.89453 18.5 7.98828 18.6602 7.94531 18.8164C7.91406 18.9453 7.79688 19.0312 7.66406 19.0312ZM12.3398 19.0312C12.1758 19.0312 12.043 18.8984 12.043 18.7344C12.043 18.5703 12.1758 18.4375 12.3398 18.4375C12.5039 18.4375 12.6367 18.5703 12.6367 18.7344C12.6367 18.8672 12.5508 18.9844 12.4219 19.0195H12.4141C12.3906 19.0273 12.3672 19.0312 12.3398 19.0312ZM6.54297 18.6562C6.50391 18.6562 6.46875 18.6484 6.43359 18.6367L6.42578 18.6328C6.27734 18.5664 6.21094 18.3945 6.27344 18.2461C6.33984 18.0977 6.51172 18.0312 6.66016 18.0938C6.80859 18.1602 6.875 18.332 6.8125 18.4805C6.76562 18.5859 6.66016 18.6562 6.54297 18.6562ZM13.457 18.6562C13.293 18.6562 13.1641 18.5234 13.1641 18.3594C13.1641 18.2422 13.2344 18.1367 13.3398 18.0938L13.3516 18.0898C13.5 18.0273 13.6719 18.1016 13.7344 18.25C13.7969 18.3984 13.7227 18.5703 13.5742 18.6328L13.4648 18.3594L13.5742 18.6328C13.5391 18.6445 13.5 18.6523 13.457 18.6562ZM5.48438 18.1289C5.43359 18.1289 5.38281 18.1133 5.33984 18.0898L5.32812 18.082C5.19141 17.9961 5.14844 17.8164 5.23438 17.6797C5.32031 17.543 5.5 17.5 5.63672 17.5859C5.77344 17.6719 5.81641 17.8516 5.73047 17.9883C5.67578 18.0742 5.58203 18.1289 5.48438 18.1289ZM14.5195 18.1289C14.3594 18.1289 14.2266 17.9961 14.2266 17.8359C14.2266 17.7344 14.2812 17.6367 14.3672 17.5859L14.3789 17.5781C14.5195 17.4961 14.6992 17.543 14.7773 17.6836C14.8594 17.8242 14.8125 18.0039 14.6719 18.082C14.6289 18.1133 14.5742 18.125 14.5195 18.1289ZM14.5508 17.8789L14.5547 17.8828L14.5273 17.832L14.5508 17.8789ZM4.5 17.4727C4.43359 17.4727 4.37109 17.4492 4.32031 17.4102L4.5 17.1797L4.32031 17.4102C4.19141 17.3125 4.16406 17.1289 4.26172 17C4.35938 16.8711 4.54297 16.8438 4.67188 16.9414L4.67969 16.9453C4.80859 17.043 4.83203 17.2305 4.73047 17.3555C4.67188 17.4297 4.58984 17.4688 4.5 17.4727ZM15.5039 17.4688C15.3398 17.4688 15.207 17.3359 15.207 17.1758C15.207 17.0117 15.3398 16.8789 15.5 16.8789C15.6602 16.8789 15.7969 17.0117 15.7969 17.1719C15.7969 17.2617 15.7578 17.3477 15.6836 17.4023L15.6719 17.4102C15.625 17.4492 15.5664 17.4688 15.5039 17.4688ZM1.03516 11.4844C0.871094 11.4844 0.738281 11.3555 0.738281 11.1914C0.738281 11.0273 0.867188 10.8945 1.03125 10.8945C1.17578 10.8945 1.30469 11 1.32422 11.1445V11.1562C1.34375 11.3164 1.22656 11.4609 1.06641 11.4805C1.05469 11.4844 1.04688 11.4844 1.03516 11.4844ZM0.992188 11.1953H0.988281L1.03516 11.1914L0.992188 11.1953ZM18.9648 11.4766C18.9492 11.4766 18.9375 11.4766 18.9219 11.4727C18.7617 11.4492 18.6484 11.3008 18.6719 11.1406C18.6953 10.9805 18.8438 10.8672 19.0039 10.8906C19.1602 10.9141 19.2734 11.0547 19.2578 11.2148V11.2266C19.2344 11.3711 19.1133 11.4766 18.9648 11.4766ZM0.957031 10.3047C0.796875 10.3047 0.664062 10.1719 0.664062 10.0117V10.0078C0.664062 9.84766 0.796875 9.71484 0.957031 9.71484C1.11719 9.71484 1.25 9.84766 1.25 10.0078V10.0117C1.25 10.1719 1.12109 10.3047 0.957031 10.3047ZM19.043 10.2969C18.8828 10.2969 18.75 10.1641 18.75 10.0039V9.98047C18.75 9.82031 18.8828 9.6875 19.043 9.6875C19.2031 9.6875 19.3359 9.82031 19.3359 9.98047V10.0039C19.3359 10.168 19.207 10.2969 19.043 10.2969ZM1.03125 9.12109C1.01953 9.12109 1.00781 9.12109 0.996094 9.12109C0.835938 9.10156 0.722656 8.95703 0.742188 8.79688V8.78516C0.765625 8.625 0.917969 8.51562 1.07812 8.54297C1.23828 8.57031 1.34766 8.71875 1.32031 8.87891C1.29687 9.01562 1.17578 9.12109 1.03125 9.12109ZM18.9648 9.09766C18.8008 9.09766 18.668 8.96875 18.668 8.80469C18.668 8.64062 18.7969 8.50781 18.9609 8.50781C19.1055 8.50781 19.2305 8.61328 19.2539 8.75781V8.76953C19.2734 8.92969 19.1562 9.07422 18.9961 9.09375C18.9844 9.09766 18.9766 9.09766 18.9648 9.09766ZM1.22266 7.66016L1.25781 7.67188L1.22266 7.66016ZM4.48438 3.125C4.32422 3.125 4.19141 2.99219 4.19141 2.83203C4.19141 2.74219 4.23438 2.65625 4.30469 2.60156L4.3125 2.59766C4.44531 2.50391 4.625 2.53125 4.72266 2.66406C4.81641 2.79688 4.78906 2.97656 4.65625 3.07422C4.60547 3.10547 4.54688 3.125 4.48438 3.125ZM15.4961 3.10938C15.4336 3.10938 15.375 3.08984 15.3242 3.05469L15.3125 3.04688C15.1875 2.94531 15.1641 2.76172 15.2656 2.63281C15.3672 2.50391 15.5508 2.48437 15.6797 2.58594C15.8047 2.6875 15.8281 2.87109 15.7266 3C15.668 3.07031 15.5859 3.10938 15.4961 3.10938ZM15.5234 2.77734L15.4922 2.81641L15.5234 2.77734ZM5.46875 2.46484C5.30469 2.46484 5.17188 2.33203 5.17578 2.16797C5.17578 2.00391 5.30859 1.87109 5.47266 1.875C5.63672 1.875 5.76953 2.00781 5.76562 2.17188C5.76562 2.27344 5.71094 2.36719 5.625 2.42188L5.61328 2.42969C5.57031 2.45312 5.51953 2.46484 5.46875 2.46484ZM5.4375 2.12109L5.46484 2.17188L5.4375 2.12109ZM14.5117 2.45312C14.4609 2.45312 14.4102 2.44141 14.3633 2.41406C14.2148 2.34375 14.1523 2.17188 14.2227 2.02344C14.293 1.875 14.4648 1.8125 14.6133 1.88281C14.6289 1.89062 14.6406 1.89844 14.6523 1.90625L14.6602 1.91016C14.8008 1.99219 14.8477 2.17188 14.7695 2.30859C14.7148 2.40234 14.6172 2.45703 14.5117 2.45312ZM6.52734 1.94141C6.36719 1.94141 6.23438 1.80859 6.23438 1.64844C6.23438 1.52734 6.30859 1.42188 6.41797 1.375L6.52734 1.64844L6.41797 1.375C6.56641 1.3125 6.73828 1.37891 6.80078 1.52344C6.80078 1.52344 6.80078 1.52344 6.80078 1.52734C6.86328 1.67578 6.79688 1.84766 6.64844 1.91016L6.63672 1.91406C6.60156 1.93359 6.5625 1.94141 6.52734 1.94141ZM13.4492 1.93359C13.2852 1.9375 13.1523 1.80859 13.1484 1.64844C13.1445 1.48438 13.2734 1.35156 13.4336 1.34766C13.4766 1.34766 13.5156 1.35547 13.5547 1.37109L13.5625 1.375C13.7109 1.4375 13.7813 1.60938 13.7188 1.75781C13.6758 1.86328 13.5664 1.93359 13.4492 1.93359ZM7.64844 1.55859C7.48828 1.55859 7.35547 1.42578 7.35547 1.26563C7.35547 1.13281 7.44531 1.01953 7.57031 0.984375H7.57422C7.73047 0.945313 7.89062 1.03906 7.92969 1.19531C7.96875 1.35156 7.875 1.51172 7.71875 1.55078C7.69531 1.55859 7.67188 1.5625 7.64844 1.55859ZM12.3281 1.55469C12.3047 1.55469 12.2812 1.55078 12.2578 1.54687L12.25 1.54297C12.0938 1.49609 12.0078 1.33203 12.0586 1.17578C12.1055 1.03125 12.2539 0.941406 12.4062 0.976562L12.3281 1.25781L12.4062 0.976562C12.5625 1.01562 12.6602 1.17578 12.6211 1.33203C12.582 1.46094 12.4648 1.55469 12.3281 1.55469ZM8.80469 1.32812C8.64453 1.32812 8.51172 1.19922 8.50781 1.03906C8.50781 0.890625 8.61719 0.765625 8.76562 0.746094H8.76953C8.92969 0.722656 9.07812 0.835938 9.09766 0.996094C9.12109 1.15625 9.00781 1.30469 8.84766 1.32422H8.84375C8.83203 1.32813 8.81641 1.32812 8.80469 1.32812ZM11.168 1.32422C11.1562 1.32422 11.1445 1.32422 11.1328 1.32031H11.125C10.9648 1.29687 10.8516 1.15234 10.875 0.992188C10.8984 0.832031 11.043 0.71875 11.2031 0.742188L11.1641 1.03125L11.2031 0.742188C11.3633 0.75 11.4883 0.890625 11.4805 1.05078C11.4688 1.21484 11.332 1.33594 11.168 1.32422ZM9.98828 1.25H9.98438C9.82422 1.25 9.69141 1.11719 9.69141 0.957031C9.69141 0.796875 9.82422 0.664062 9.98438 0.664062H9.98828C10.1484 0.664062 10.2812 0.796875 10.2812 0.957031C10.2812 1.11719 10.1523 1.25 9.98828 1.25Z" fill="#57565C"/>
<path d="M19.707 4.73439C19.6992 4.90236 19.6758 5.06642 19.6367 5.22658C19.4765 5.89455 19.0547 6.42189 18.6562 6.96096C18.3984 7.30861 18.1289 7.64846 17.8398 7.97268L17.8242 7.9883C17.5156 7.64846 17.2305 7.28908 16.9609 6.91799C16.5547 6.3633 16.1328 5.77736 15.9766 5.09377C15.8125 4.41017 16.0117 3.69142 16.5078 3.19142C17.2109 2.46095 18.3711 2.44142 19.1015 3.14455C19.1797 3.22267 19.2539 3.3047 19.3203 3.39845C19.6055 3.78908 19.7226 4.26173 19.707 4.73439Z" fill="#EB304A"/>
<path d="M19.3164 3.40234C18.9687 2.92578 18.4141 2.64062 17.8242 2.63672C17.7266 2.63672 17.6289 2.64453 17.5312 2.66016C18.0117 2.74609 18.4414 3.01172 18.7266 3.40234C19.0156 3.78906 19.1328 4.26172 19.1172 4.73438C19.1094 4.90234 19.0859 5.06641 19.0469 5.22656C18.8867 5.89453 18.4648 6.42187 18.0664 6.96094C17.8945 7.19531 17.7148 7.42578 17.5273 7.64844C17.625 7.76172 17.7227 7.87891 17.8203 7.98828L17.8359 7.97266C18.125 7.64844 18.3984 7.30859 18.6523 6.96094C19.0508 6.41797 19.4727 5.89453 19.6328 5.22656C19.6719 5.06641 19.6953 4.89844 19.7031 4.73438C19.7227 4.26172 19.6055 3.78906 19.3164 3.40234Z" fill="#E4222E"/>
<path d="M17.8242 5.25C18.2147 5.25 18.5312 4.93345 18.5312 4.54297C18.5312 4.15249 18.2147 3.83594 17.8242 3.83594C17.4337 3.83594 17.1172 4.15249 17.1172 4.54297C17.1172 4.93345 17.4337 5.25 17.8242 5.25Z" fill="white"/>
<path d="M17.8242 3.83594C17.7227 3.83594 17.625 3.85938 17.5312 3.89844C17.8867 4.05859 18.0469 4.47656 17.8867 4.83203C17.8164 4.98828 17.6914 5.11328 17.5312 5.1875C17.8867 5.34766 18.3047 5.19141 18.4688 4.83594C18.6289 4.48047 18.4727 4.0625 18.1172 3.89844C18.0234 3.85547 17.9258 3.83594 17.8242 3.83594Z" fill="#E1E1E3"/>
<path d="M19.707 14.1055C19.6992 14.2735 19.6758 14.4375 19.6367 14.5977C19.4765 15.2656 19.0547 15.793 18.6562 16.332C18.3984 16.6797 18.1289 17.0195 17.8398 17.3438L17.8242 17.3594C17.5156 17.0195 17.2266 16.6602 16.9609 16.2891C16.5547 15.7344 16.1328 15.1485 15.9766 14.4688C15.8125 13.7852 16.0117 13.0664 16.5078 12.5664C17.2109 11.836 18.3711 11.8164 19.1015 12.5195C19.1797 12.5977 19.2539 12.6797 19.3203 12.7695C19.6055 13.1641 19.7226 13.6328 19.707 14.1055Z" fill="#EB304A"/>
<path d="M19.3164 12.7734C18.9687 12.2969 18.4141 12.0117 17.8242 12.0078C17.7266 12.0078 17.6289 12.0156 17.5312 12.0313C18.0117 12.1172 18.4414 12.3828 18.7266 12.7734C19.0156 13.1602 19.1328 13.6328 19.1172 14.1055C19.1094 14.2734 19.0859 14.4375 19.0469 14.5977C18.8867 15.2656 18.4648 15.793 18.0664 16.332C17.8945 16.5664 17.7148 16.7969 17.5273 17.0195C17.625 17.1328 17.7227 17.25 17.8203 17.3594L17.8359 17.3438C18.125 17.0195 18.3984 16.6797 18.6523 16.332C19.0508 15.7891 19.4727 15.2656 19.6328 14.5977C19.6719 14.4375 19.6953 14.2695 19.7031 14.1055C19.7227 13.6328 19.6055 13.1641 19.3164 12.7734Z" fill="#E4222E"/>
<path d="M17.8242 14.6211C18.2147 14.6211 18.5312 14.3045 18.5312 13.9141C18.5312 13.5236 18.2147 13.207 17.8242 13.207C17.4337 13.207 17.1172 13.5236 17.1172 13.9141C17.1172 14.3045 17.4337 14.6211 17.8242 14.6211Z" fill="white"/>
<path d="M17.8242 13.207C17.7227 13.207 17.625 13.2305 17.5312 13.2695C17.8867 13.4297 18.0469 13.8477 17.8867 14.2031C17.8164 14.3594 17.6914 14.4844 17.5312 14.5586C17.625 14.6016 17.7227 14.6211 17.8242 14.6211C18.2148 14.6133 18.5234 14.2891 18.5156 13.8984C18.5078 13.5195 18.2031 13.2148 17.8242 13.207Z" fill="#E1E1E3"/>
<path d="M4.07812 14.1055C4.07031 14.2734 4.04687 14.4375 4.0078 14.5977C3.84765 15.2656 3.42577 15.793 3.02734 16.332C2.76952 16.6797 2.49999 17.0195 2.21093 17.3438L2.19531 17.3594C1.88671 17.0195 1.60156 16.6602 1.33202 16.2891C0.92968 15.7383 0.507805 15.1484 0.347649 14.4688C0.183587 13.7852 0.382805 13.0664 0.878899 12.5664C1.22656 12.2148 1.70312 12.0117 2.19921 12.0078C2.78906 12.0156 3.33984 12.2969 3.6914 12.7734C3.98046 13.1641 4.09765 13.6328 4.07812 14.1055Z" fill="#EB304A"/>
<path d="M3.6914 12.7734C3.34375 12.2969 2.78906 12.0156 2.19922 12.0078C2.10156 12.0078 2.00391 12.0156 1.90625 12.0313C2.38672 12.1172 2.8164 12.3828 3.10547 12.7734C3.39453 13.1602 3.51172 13.6328 3.49609 14.1055C3.48828 14.2734 3.46484 14.4375 3.42578 14.5977C3.26562 15.2656 2.84375 15.793 2.44531 16.332C2.27344 16.5664 2.09375 16.7969 1.90625 17.0195C2.00391 17.1328 2.10156 17.25 2.19922 17.3594L2.21484 17.3438C2.50391 17.0195 2.77344 16.6797 3.03125 16.332C3.42968 15.7891 3.85156 15.2656 4.01171 14.5977C4.05078 14.4375 4.07422 14.2695 4.08203 14.1055C4.09765 13.6328 3.98047 13.1641 3.6914 12.7734Z" fill="#E4222E"/>
<path d="M2.19922 14.6211C2.5897 14.6211 2.90625 14.3045 2.90625 13.9141C2.90625 13.5236 2.5897 13.207 2.19922 13.207C1.80874 13.207 1.49219 13.5236 1.49219 13.9141C1.49219 14.3045 1.80874 14.6211 2.19922 14.6211Z" fill="white"/>
<path d="M2.19922 13.207C2.09766 13.207 2 13.2305 1.90625 13.2695C2.26172 13.4297 2.42188 13.8477 2.26172 14.2031C2.19141 14.3594 2.06641 14.4883 1.90625 14.5586C2 14.6016 2.09766 14.6211 2.19922 14.6211C2.58984 14.6289 2.91406 14.3203 2.92188 13.9297C2.92969 13.5391 2.62109 13.2148 2.23047 13.207C2.22266 13.207 2.21094 13.207 2.19922 13.207Z" fill="#E1E1E3"/>
<path d="M4.07812 4.73438C4.07031 4.90234 4.04687 5.06641 4.0078 5.22656C3.84765 5.89453 3.42577 6.42187 3.02734 6.96094C2.76952 7.30859 2.49999 7.64844 2.21093 7.97266L2.19531 7.98828C1.88671 7.64844 1.60156 7.28906 1.33202 6.91797C0.92968 6.36328 0.507805 5.77734 0.347649 5.09766C0.183587 4.41406 0.382805 3.69531 0.878899 3.19531C1.22656 2.84375 1.70312 2.64062 2.19921 2.63672C2.78906 2.64453 3.33984 2.92578 3.6914 3.40234C3.98046 3.78906 4.09765 4.26172 4.07812 4.73438Z" fill="#EB304A"/>
<path d="M3.6914 3.40234C3.34375 2.92578 2.78906 2.64062 2.19922 2.63672C2.10156 2.63672 2.00391 2.64453 1.90625 2.66016C2.38672 2.74609 2.8164 3.01172 3.10547 3.40234C3.39453 3.78906 3.51172 4.26172 3.49609 4.73438C3.48828 4.90234 3.46484 5.06641 3.42578 5.22656C3.26562 5.89453 2.84375 6.42187 2.44531 6.96094C2.27344 7.19531 2.09375 7.42578 1.90625 7.64844C2.00391 7.76172 2.10156 7.87891 2.19922 7.98828L2.21484 7.97266C2.50391 7.64844 2.77344 7.30859 3.03125 6.96094C3.42968 6.41797 3.85156 5.89453 4.01171 5.22656C4.05078 5.06641 4.07422 4.89844 4.08203 4.73438C4.09765 4.26172 3.98047 3.78906 3.6914 3.40234Z" fill="#E4222E"/>
<path d="M2.19922 5.25C2.5897 5.25 2.90625 4.93345 2.90625 4.54297C2.90625 4.15249 2.5897 3.83594 2.19922 3.83594C1.80874 3.83594 1.49219 4.15249 1.49219 4.54297C1.49219 4.93345 1.80874 5.25 2.19922 5.25Z" fill="white"/>
<path d="M2.19922 3.83594C2.09766 3.83594 2 3.85938 1.90625 3.89844C2.26172 4.05859 2.42188 4.47656 2.26172 4.83203C2.19141 4.98828 2.06641 5.11328 1.90625 5.1875C2.26172 5.34766 2.67969 5.19141 2.84375 4.83594C3.00781 4.48047 2.84766 4.0625 2.49219 3.89844C2.39844 3.85547 2.30078 3.83594 2.19922 3.83594Z" fill="#E1E1E3"/>
<path d="M6.69141 8.48047L9.89844 5.93359C9.95703 5.88672 10.0352 5.88672 10.0938 5.93359L13.3125 8.48047L10.1797 9.06641L6.69141 8.48047Z" fill="#4F4F4F"/>
<path d="M9.89844 5.93359L9.70312 6.08984L12.7227 8.48047H13.3086L10.0898 5.93359C10.0352 5.88672 9.95703 5.88672 9.89844 5.93359Z" fill="#4F4F4F"/>
<path d="M12.6367 9.65234H11.4648V12.9727H12.6367V9.65234Z" fill="#DADADC"/>
<path d="M12.6367 9.65234H12.0508V12.9727H12.6367V9.65234Z" fill="#4F4F4F"/>
<path d="M8.53516 9.62891H7.36328V12.9727H8.53516V9.62891Z" fill="#DADADC"/>
<path d="M8.53516 9.62891H7.94922V12.9727H8.53516V9.62891Z" fill="#4F4F4F"/>
<path d="M9.99609 7.75C10.1579 7.75 10.2891 7.61883 10.2891 7.45703C10.2891 7.29523 10.1579 7.16406 9.99609 7.16406C9.83429 7.16406 9.70312 7.29523 9.70312 7.45703C9.70312 7.61883 9.83429 7.75 9.99609 7.75Z" fill="white"/>
<path d="M9.99609 7.16406C9.96875 7.16406 9.94531 7.16797 9.91797 7.17578C10.0742 7.21875 10.1641 7.37891 10.1211 7.53516C10.0938 7.63281 10.0156 7.71094 9.91797 7.73828C9.94531 7.74609 9.96875 7.75 9.99609 7.75C10.1562 7.75 10.2891 7.61719 10.2891 7.45703C10.2891 7.29688 10.1562 7.16406 9.99609 7.16406Z" fill="#E1E1E3"/>
<path d="M13.3086 14.1445H6.69141V13.5586C6.69141 13.2344 6.95313 12.9727 7.27734 12.9727H12.7266C13.0508 12.9727 13.3125 13.2344 13.3125 13.5586V14.1445H13.3086Z" fill="#4F4F4F"/>
<path d="M12.7227 12.9727H12.1367C12.4609 12.9727 12.7227 13.2344 12.7227 13.5586V14.1445H13.3086V13.5586C13.3086 13.2344 13.0469 12.9727 12.7227 12.9727Z" fill="#4F4F4F"/>
<path d="M13.1523 9.65234H6.84766C6.76172 9.65234 6.69141 9.58203 6.69141 9.49609V8.48047H13.3125V9.49609C13.3086 9.58203 13.2383 9.65234 13.1523 9.65234Z" fill="#4F4F4F"/>
<path d="M12.7227 8.48047V9.65234H13.1523C13.2383 9.65234 13.3086 9.58203 13.3086 9.49609V8.48047H12.7227Z" fill="#4F4F4F"/>
</svg>
