<svg width="20" height="21" viewBox="0 0 20 21" fill="none" xmlns="http://www.w3.org/2000/svg">
<path d="M13.7134 10.7155C14.6986 9.94415 15.4178 8.88642 15.7708 7.68944C16.1237 6.49246 16.093 5.21576 15.6829 4.03696C15.2727 2.85817 14.5036 1.83589 13.4823 1.11235C12.4611 0.388815 11.2387 0 9.9851 0C8.73148 0 7.50904 0.388815 6.48784 1.11235C5.46664 1.83589 4.69746 2.85817 4.28731 4.03696C3.87716 5.21576 3.84644 6.49246 4.19943 7.68944C4.55241 8.88642 5.27154 9.94415 6.25678 10.7155C4.56856 11.3885 3.09553 12.5048 1.99473 13.9454C0.893922 15.386 0.20661 17.0968 0.00606162 18.8955C-0.00845511 19.0268 0.00316392 19.1597 0.0402551 19.2866C0.0773462 19.4134 0.139183 19.5317 0.222235 19.6348C0.389967 19.843 0.63393 19.9763 0.900456 20.0055C1.16698 20.0347 1.43424 19.9573 1.64343 19.7904C1.85263 19.6235 1.98662 19.3807 2.01594 19.1155C2.23661 17.1607 3.17331 15.3553 4.64708 14.0443C6.12086 12.7333 8.02838 12.0085 10.0052 12.0085C11.982 12.0085 13.8895 12.7333 15.3633 14.0443C16.8371 15.3553 17.7738 17.1607 17.9944 19.1155C18.0218 19.3612 18.1396 19.5882 18.3252 19.7525C18.5108 19.9169 18.751 20.007 18.9994 20.0055H19.1099C19.3734 19.9753 19.6141 19.8428 19.7798 19.6367C19.9454 19.4307 20.0225 19.1679 19.9943 18.9055C19.7928 17.1017 19.1018 15.3865 17.9953 13.9437C16.8888 12.5009 15.4087 11.385 13.7134 10.7155ZM9.9851 10.0055C9.19006 10.0055 8.41289 9.7709 7.75184 9.33137C7.0908 8.89185 6.57557 8.26713 6.27133 7.53623C5.96708 6.80533 5.88748 6.00106 6.04258 5.22513C6.19768 4.44921 6.58053 3.73648 7.1427 3.17707C7.70487 2.61766 8.42113 2.2367 9.20088 2.08235C9.98064 1.92801 10.7889 2.00723 11.5234 2.30998C12.2579 2.61273 12.8857 3.12542 13.3274 3.78321C13.7691 4.44101 14.0048 5.21437 14.0048 6.0055C14.0048 7.06636 13.5813 8.08378 12.8275 8.83392C12.0736 9.58407 11.0512 10.0055 9.9851 10.0055Z" fill="#3D3D3D"/>
</svg>
