<svg width="20" height="20" viewBox="0 0 20 20" fill="none" xmlns="http://www.w3.org/2000/svg">
<path d="M10 0C4.5 0 0 4.5 0 10C0 15.5 4.5 20 10 20C15.5 20 20 15.5 20 10C20 4.5 15.5 0 10 0ZM10 3.88889C11.2222 3.88889 12.2222 4.88889 12.2222 6.11111C12.2222 7.33333 11.2222 8.33333 10 8.33333C8.77778 8.33333 7.77778 7.33333 7.77778 6.11111C7.77778 4.88889 8.77778 3.88889 10 3.88889ZM4.44444 15.5556C4.44444 12.5 6.94444 10 10 10C13.0556 10 15.5556 12.5 15.5556 15.5556H4.44444Z" fill="#464646"/>
</svg>
